<svg width="100" height="90" viewBox="0 0 100 90" fill="none" xmlns="http://www.w3.org/2000/svg" style="filter: invert(1)">
<rect x="0.5" y="0.5" width="99" height="89" rx="9.5" stroke="#121212" stroke-opacity="0.4"/>
<path fill-rule="evenodd" clip-rule="evenodd" d="M49.9648 20.2998C43.6346 20.2998 38.5 25.394 38.5 31.6744C38.5 36.6988 41.8058 40.9556 46.3073 42.4908C46.87 42.5606 47.081 42.2116 47.081 41.9325C47.081 41.6534 47.081 40.9556 47.081 39.9786C43.9159 40.6764 43.2125 38.4434 43.2125 38.4434C42.7202 37.1175 41.9465 36.7686 41.9465 36.7686C40.8914 36.0707 42.0168 36.0707 42.0168 36.0707C43.1422 36.1405 43.7752 37.2571 43.7752 37.2571C44.8303 39.0016 46.448 38.5132 47.081 38.234C47.1514 37.4664 47.5031 36.9779 47.7844 36.6988C45.2523 36.4197 42.5795 35.4427 42.5795 31.0464C42.5795 29.7903 43.0015 28.8133 43.7752 27.9759C43.7049 27.7666 43.2829 26.5803 43.9159 25.045C43.9159 25.045 44.9006 24.7659 47.081 26.2314C47.9954 25.9522 48.9801 25.8824 49.9648 25.8824C50.9495 25.8824 51.9342 26.022 52.8486 26.2314C55.0291 24.7659 56.0138 25.045 56.0138 25.045C56.6468 26.5803 56.2248 27.7666 56.1544 28.0457C56.8578 28.8133 57.3502 29.8601 57.3502 31.1162C57.3502 35.5125 54.6774 36.4197 52.1453 36.6988C52.5673 37.0477 52.919 37.7455 52.919 38.7923C52.919 40.3275 52.919 41.5138 52.919 41.9325C52.919 42.2116 53.13 42.5606 53.6927 42.4908C58.2645 40.9556 61.5 36.6988 61.5 31.6744C61.4297 25.394 56.2951 20.2998 49.9648 20.2998Z" fill="#121212"/>
<path d="M33.3242 66.6914C30.3711 66.6914 28.1426 64.4766 28.1426 61.5508C28.1426 58.625 30.3574 56.4102 33.2832 56.4102C34.8281 56.4102 36.2773 57.0254 37.2617 58.2832L36.3047 59.0078C35.5664 58.0098 34.5 57.5586 33.2832 57.5586C30.9863 57.5586 29.373 59.2129 29.373 61.5508C29.373 63.8887 31 65.543 33.3242 65.543C35.252 65.543 36.5439 64.415 36.7695 62.6719H33.707V61.5508H38C38.0137 61.7148 38.0273 61.9062 38.0273 62.125C38.0273 64.7773 36.0723 66.6914 33.3242 66.6914ZM39.5859 66.5V59.4453H40.7344V66.5H39.5859ZM40.1602 57.9688C39.7227 57.9688 39.3945 57.6406 39.3945 57.2031C39.3945 56.7656 39.7227 56.4375 40.1602 56.4375C40.5977 56.4375 40.9258 56.7656 40.9258 57.2031C40.9258 57.6406 40.5977 57.9688 40.1602 57.9688ZM42.1289 60.4023V59.4453H43.332V57.6953H44.4805V59.4453H46.2305V60.4023H44.4805V64.4492C44.4805 65.2148 44.8086 65.5703 45.5195 65.5703C45.7383 65.5703 45.9844 65.5293 46.2305 65.4609V66.541C46.0117 66.623 45.7109 66.6914 45.3555 66.6914C44.1113 66.6914 43.332 65.8438 43.332 64.4902V60.4023H42.1289ZM47.7891 66.5V56.6016H48.9922V60.7441H54.2422V56.6016H55.4453V66.5H54.2422V61.8652H48.9922V66.5H47.7891ZM63.0742 59.4453V66.5H61.9258V65.4746H61.8848C61.5293 66.2266 60.7705 66.6914 59.7656 66.6914C58.1934 66.6914 57.332 65.584 57.332 63.7656V59.4453H58.4805V63.6016C58.4805 64.9004 59.0273 65.5977 60.0117 65.5977C60.9961 65.5977 61.9258 64.9004 61.9258 63.3828V59.4453H63.0742ZM64.9062 66.5V56.6016H66.0547V60.5527H66.1094C66.5811 59.7119 67.3672 59.2539 68.4062 59.2539C70.3613 59.2539 71.7695 60.8535 71.7695 62.9727C71.7695 65.0918 70.3613 66.6914 68.4062 66.6914C67.3672 66.6914 66.5811 66.2334 66.1094 65.3926H66.0547V66.5H64.9062ZM68.2969 65.5977C69.6504 65.5977 70.5938 64.5039 70.5938 62.9727C70.5938 61.4414 69.6504 60.3477 68.2969 60.3477C66.957 60.3477 66 61.4277 66 62.9727C66 64.5176 66.957 65.5977 68.2969 65.5977Z" fill="#121212"/>
</svg>
