<svg width="100" height="90" viewBox="0 0 100 90" fill="none" xmlns="http://www.w3.org/2000/svg" style="filter: invert(1)">
<rect x="0.5" y="0.5" width="99" height="89" rx="9.5" stroke="#121212" stroke-opacity="0.4"/>
<path d="M54 21.5H46C42.5 21.5 41 23.5 41 26.5V36.5C41 39.5 42.5 41.5 46 41.5H54C57.5 41.5 59 39.5 59 36.5V26.5C59 23.5 57.5 21.5 54 21.5ZM46 31.75H50C50.41 31.75 50.75 32.09 50.75 32.5C50.75 32.91 50.41 33.25 50 33.25H46C45.59 33.25 45.25 32.91 45.25 32.5C45.25 32.09 45.59 31.75 46 31.75ZM54 37.25H46C45.59 37.25 45.25 36.91 45.25 36.5C45.25 36.09 45.59 35.75 46 35.75H54C54.41 35.75 54.75 36.09 54.75 36.5C54.75 36.91 54.41 37.25 54 37.25ZM56.5 28.75H54.5C52.98 28.75 51.75 27.52 51.75 26V24C51.75 23.59 52.09 23.25 52.5 23.25C52.91 23.25 53.25 23.59 53.25 24V26C53.25 26.69 53.81 27.25 54.5 27.25H56.5C56.91 27.25 57.25 27.59 57.25 28C57.25 28.41 56.91 28.75 56.5 28.75Z" fill="#121212"/>
<path d="M25.4707 66.5V56.6016H28.4785C30.6113 56.6016 32.0332 57.7773 32.0332 59.5273C32.0332 60.9834 31.0625 62.043 29.5312 62.3574L32.334 66.5H30.9121L28.1777 62.4668H26.6738V66.5H25.4707ZM26.6738 61.3457H28.4922C29.9551 61.3457 30.8027 60.6621 30.8027 59.5273C30.8027 58.3926 29.9551 57.7227 28.4922 57.7227H26.6738V61.3457ZM36.8047 66.6914C34.6855 66.6914 33.127 65.0918 33.127 62.9727C33.127 60.8535 34.6445 59.2539 36.668 59.2539C38.6914 59.2539 40.0996 60.8535 40.0996 62.9727L40.0859 63.3691H34.3301C34.4873 64.7227 35.4854 65.5977 36.832 65.5977C37.8027 65.5977 38.5 65.1396 38.8555 64.3809L39.8672 64.8184C39.3271 65.9531 38.2539 66.6914 36.8047 66.6914ZM34.3848 62.248H38.8418C38.7598 61.1748 37.8848 60.3477 36.668 60.3477C35.5059 60.3477 34.6377 61.0996 34.3848 62.248ZM43.9551 66.6914C42.8066 66.6914 41.8906 66.2402 41.2207 65.3516L42.1504 64.6953C42.6152 65.3242 43.1621 65.5977 43.9551 65.5977C44.9395 65.5977 45.5137 65.1875 45.5137 64.4902C45.5137 63.9434 45.1445 63.6699 44.0098 63.3828L43.627 63.2871C42.1641 62.918 41.4668 62.2891 41.4668 61.332C41.4668 60.1426 42.5332 59.2539 43.9551 59.2539C45.0078 59.2539 45.9785 59.7461 46.5391 60.5801L45.582 61.209C45.1855 60.6484 44.625 60.3477 43.9551 60.3477C43.1758 60.3477 42.6426 60.7441 42.6426 61.332C42.6426 61.7695 42.9297 61.9746 43.9004 62.2207L44.2832 62.3164C45.9512 62.7266 46.6895 63.3965 46.6895 64.4902C46.6895 65.8027 45.582 66.6914 43.9551 66.6914ZM53.9355 59.4453V66.5H52.7871V65.4746H52.7461C52.3906 66.2266 51.6318 66.6914 50.627 66.6914C49.0547 66.6914 48.1934 65.584 48.1934 63.7656V59.4453H49.3418V63.6016C49.3418 64.9004 49.8887 65.5977 50.873 65.5977C51.8574 65.5977 52.7871 64.9004 52.7871 63.3828V59.4453H53.9355ZM55.7676 66.5V59.4453H56.916V60.4707H56.957C57.2852 59.7188 57.9893 59.2539 58.9258 59.2539C59.9238 59.2539 60.6143 59.7666 60.9629 60.6758H61.0039C61.291 59.8076 62.0635 59.2539 63.123 59.2539C64.6406 59.2539 65.4746 60.3613 65.4746 62.1797V66.5H64.3262V62.3438C64.3262 61.0449 63.8203 60.3477 62.9316 60.3477C62.043 60.3477 61.1953 61.0449 61.1953 62.5625V66.5H60.0469V62.3438C60.0469 61.0449 59.541 60.3477 58.6523 60.3477C57.7637 60.3477 56.916 61.0449 56.916 62.5625V66.5H55.7676ZM70.6562 66.6914C68.5371 66.6914 66.9785 65.0918 66.9785 62.9727C66.9785 60.8535 68.4961 59.2539 70.5195 59.2539C72.543 59.2539 73.9512 60.8535 73.9512 62.9727L73.9375 63.3691H68.1816C68.3389 64.7227 69.3369 65.5977 70.6836 65.5977C71.6543 65.5977 72.3516 65.1396 72.707 64.3809L73.7188 64.8184C73.1787 65.9531 72.1055 66.6914 70.6562 66.6914ZM68.2363 62.248H72.6934C72.6113 61.1748 71.7363 60.3477 70.5195 60.3477C69.3574 60.3477 68.4893 61.0996 68.2363 62.248Z" fill="#121212"/>
</svg>
