<svg width="100" height="90" viewBox="0 0 100 90" fill="none" xmlns="http://www.w3.org/2000/svg" style="filter: invert(1)">
<rect x="0.5" y="0.5" width="99" height="89" rx="9.5" stroke="#121212" stroke-opacity="0.4"/>
<path d="M58.9479 21H41.0521C40.1957 21 39.5 21.6748 39.5 22.5039V40.4961C39.5 41.3279 40.1957 42 41.0521 42H58.9479C59.8043 42 60.5 41.3252 60.5 40.4961V22.5039C60.5 21.6721 59.8043 21 58.9479 21ZM45.8662 38.5817H42.6956V29.0981H45.8662V38.5817ZM44.2809 27.8035H44.2615C43.1972 27.8035 42.5099 27.0763 42.5099 26.1646C42.5099 25.2529 43.2194 24.5257 44.3031 24.5257C45.3868 24.5257 46.0547 25.2336 46.0769 26.1646C46.0769 27.0736 45.3895 27.8035 44.2837 27.8035H44.2809ZM57.3044 38.5817H54.1338V33.508C54.1338 32.2327 53.6737 31.3623 52.5263 31.3623C51.6505 31.3623 51.1294 31.949 50.8994 32.5164C50.8162 32.7202 50.794 33.0012 50.794 33.2849V38.5817H47.6234C47.6234 38.5817 47.665 29.9878 47.6234 29.0981H50.794V30.4423C51.2153 29.795 51.9692 28.8778 53.6515 28.8778C55.7385 28.8778 57.3044 30.2329 57.3044 33.1472V38.5845V38.5817Z" fill="#121212"/>
<path d="M24.9707 66.5V56.6016H26.1738V65.3789H30.877V66.5H24.9707ZM32.4355 66.5V59.4453H33.584V66.5H32.4355ZM33.0098 57.9688C32.5723 57.9688 32.2441 57.6406 32.2441 57.2031C32.2441 56.7656 32.5723 56.4375 33.0098 56.4375C33.4473 56.4375 33.7754 56.7656 33.7754 57.2031C33.7754 57.6406 33.4473 57.9688 33.0098 57.9688ZM35.416 66.5V59.4453H36.5645V60.4707H36.6191C36.9609 59.7188 37.7197 59.2539 38.7246 59.2539C40.2969 59.2539 41.1582 60.3613 41.1582 62.1797V66.5H40.0098V62.3438C40.0098 61.0449 39.4629 60.3477 38.4785 60.3477C37.4941 60.3477 36.5645 61.0449 36.5645 62.5625V66.5H35.416ZM42.9902 66.5V56.1641H44.1387V62.5078L46.9688 59.4453H48.4863L45.3145 62.8086L48.6094 66.5H47.1191L44.1387 63.1641V66.5H42.9902ZM52.8066 66.6914C50.6875 66.6914 49.1289 65.0918 49.1289 62.9727C49.1289 60.8535 50.6465 59.2539 52.6699 59.2539C54.6934 59.2539 56.1016 60.8535 56.1016 62.9727L56.0879 63.3691H50.332C50.4893 64.7227 51.4873 65.5977 52.834 65.5977C53.8047 65.5977 54.502 65.1396 54.8574 64.3809L55.8691 64.8184C55.3291 65.9531 54.2559 66.6914 52.8066 66.6914ZM50.3867 62.248H54.8438C54.7617 61.1748 53.8867 60.3477 52.6699 60.3477C51.5078 60.3477 50.6396 61.0996 50.3867 62.248ZM64.1406 66.5H62.9922V65.3926H62.9512C62.4658 66.2334 61.6797 66.6914 60.6406 66.6914C58.6855 66.6914 57.2773 65.0918 57.2773 62.9727C57.2773 60.8535 58.6855 59.2539 60.6406 59.2539C61.6797 59.2539 62.4658 59.7119 62.9512 60.5527H62.9922V56.1641H64.1406V66.5ZM60.75 65.5977C62.0898 65.5977 63.0469 64.5176 63.0469 62.9727C63.0469 61.4277 62.0898 60.3477 60.75 60.3477C59.3965 60.3477 58.4531 61.4414 58.4531 62.9727C58.4531 64.5039 59.3965 65.5977 60.75 65.5977ZM66.0273 66.5V56.6016H67.2305V66.5H66.0273ZM69.1172 66.5V59.4453H70.2656V60.4707H70.3203C70.6621 59.7188 71.4209 59.2539 72.4258 59.2539C73.998 59.2539 74.8594 60.3613 74.8594 62.1797V66.5H73.7109V62.3438C73.7109 61.0449 73.1641 60.3477 72.1797 60.3477C71.1953 60.3477 70.2656 61.0449 70.2656 62.5625V66.5H69.1172Z" fill="#121212"/>
</svg>
